<?xml version="1.0" standalone="no"?><!DOCTYPE svg PUBLIC "-//W3C//DTD SVG 1.1//EN" "http://www.w3.org/Graphics/SVG/1.1/DTD/svg11.dtd"><svg t="1602464437926" class="icon" viewBox="0 0 1024 1024" version="1.1" xmlns="http://www.w3.org/2000/svg" p-id="2771" data-spm-anchor-id="a313x.7781069.0.i10" xmlns:xlink="http://www.w3.org/1999/xlink" width="200" height="200"><defs><style type="text/css"></style></defs><path d="M134.0928 912.1792c14.1312 19.0464 23.8592 30.6176 39.8336 30.6176s25.7024-11.5712 39.8336-30.6176c14.7456-19.8656 33.0752-44.5952 71.8336-44.5952 38.7072 0 57.0368 24.7296 71.7824 44.5952 14.1312 19.0464 23.8592 30.6176 39.8336 30.6176s25.7024-11.5712 39.8336-30.6176c14.7456-19.8656 33.0752-44.5952 71.7824-44.5952s57.088 24.7296 71.8336 44.5952c14.1312 19.0464 23.8592 30.6176 39.8336 30.6176s25.7024-11.5712 39.8336-30.6176c14.7456-19.8656 33.1264-44.5952 71.8336-44.5952s57.0368 24.7296 71.7824 44.5952c14.1312 19.0464 23.8592 30.6176 39.8336 30.6176s25.7024-11.5712 39.8336-30.6176c4.4544-5.9904 9.2672-12.4416 14.848-18.5344a51.456 51.456 0 0 0 13.6704-34.816V221.5936c0-76.1856-57.344-137.984-128.1024-137.984H235.4176c-70.7584 0-128.1024 61.7984-128.1024 137.984v639.1296c0 12.544 4.5568 24.6784 12.8 33.8432 5.1712 5.7856 9.728 11.9296 13.9776 17.6128z" fill="#FF5122" p-id="2772" data-spm-anchor-id="a313x.7781069.0.i7" class=""></path><path d="M784.0256 83.6096H235.4176c-70.7584 0-128.1024 61.7984-128.1024 137.984v639.1296c0 2.4064 0.2048 4.7616 0.512 7.0656 2.5088 3.1744 4.864 6.3488 7.1168 9.3696 14.1312 19.0464 23.8592 30.6176 39.8336 30.6176s25.7024-11.5712 39.8336-30.6176c14.7456-19.8656 33.0752-44.5952 71.8336-44.5952 38.7072 0 57.0368 24.7296 71.7824 44.5952 14.1312 19.0464 23.8592 30.6176 39.8336 30.6176s25.7024-11.5712 39.8336-30.6176c14.7456-19.8656 33.0752-44.5952 71.7824-44.5952s57.088 24.7296 71.8336 44.5952c14.1312 19.0464 23.8592 30.6176 39.8336 30.6176s25.7024-11.5712 39.8336-30.6176c14.7456-19.8656 33.0752-44.5952 71.8336-44.5952 38.7072 0 57.0368 24.7296 71.7824 44.5952 14.1312 19.0464 23.8592 30.6176 39.8336 30.6176s25.7024-11.5712 39.8336-30.6176c4.4544-5.9904 9.2672-12.4416 14.848-18.5344a51.456 51.456 0 0 0 13.6704-34.816V186.5728c0-18.2784-3.328-35.6864-9.3184-51.6096-23.3984-31.3344-59.3408-51.3536-99.6352-51.3536z" fill="#FE6A19" p-id="2773" data-spm-anchor-id="a313x.7781069.0.i9" class=""></path><path d="M873.9328 146.5344c0-8.7552-0.768-17.3056-2.2528-25.6-22.9376-23.1424-53.7088-37.376-87.6544-37.376H235.4176c-70.7584 0-128.1024 61.7984-128.1024 137.984v630.1184c8.8576 10.1888 17.0496 16.128 28.3648 16.128 15.9744 0 25.7024-11.5712 39.8336-30.6176 14.7456-19.8656 33.0752-44.5952 71.8336-44.5952 38.7072 0 57.0368 24.7296 71.7824 44.5952 14.1312 19.0464 23.8592 30.6176 39.8336 30.6176s25.7024-11.5712 39.8336-30.6176c14.7456-19.8656 33.0752-44.5952 71.7824-44.5952s57.088 24.7296 71.8336 44.5952c14.1312 19.0464 23.8592 30.6176 39.8336 30.6176s25.7024-11.5712 39.8336-30.6176c14.7456-19.8656 33.0752-44.5952 71.8336-44.5952 38.7072 0 57.0368 24.7296 71.7824 44.5952 14.1312 19.0464 23.8592 30.6176 39.8336 30.6176s25.7024-11.5712 39.8336-30.6176c4.4544-5.9904 9.2672-12.4416 14.848-18.5344a51.456 51.456 0 0 0 13.6704-34.816V146.5344z" fill="#FC8308" p-id="2774" data-spm-anchor-id="a313x.7781069.0.i8" class=""></path><path d="M854.784 105.5232a124.78976 124.78976 0 0 0-70.7584-21.9648H235.4176c-70.7584 0-128.1024 59.0848-128.1024 131.9424v578.048c2.8672 0.9216 5.9392 1.536 9.2672 1.536 15.9744 0 25.7024-11.0592 39.8336-29.2864 14.7456-18.9952 33.0752-42.6496 71.8336-42.6496 38.7072 0 57.0368 23.6544 71.7824 42.6496 14.1312 18.2272 23.8592 29.2864 39.8336 29.2864s25.7024-11.0592 39.8336-29.2864c14.7456-18.9952 33.0752-42.6496 71.7824-42.6496s57.088 23.6544 71.8336 42.6496c14.1312 18.2272 23.8592 29.2864 39.8336 29.2864s25.7024-11.0592 39.8336-29.2864c14.7456-18.9952 33.0752-42.6496 71.8336-42.6496 38.7072 0 57.0368 23.6544 71.7824 42.6496 14.1312 18.2272 23.8592 29.2864 39.8336 29.2864s25.7024-11.0592 39.8336-29.2864c4.4544-5.7344 9.2672-11.9296 14.848-17.7152 8.6528-8.96 13.6704-20.8384 13.6704-33.28v-609.28z" fill="#FF9843" p-id="2775" data-spm-anchor-id="a313x.7781069.0.i6" class=""></path><path d="M670.0032 457.4208c20.6848-12.2368 34.56-34.7648 34.56-60.5184 0-31.6928-21.0944-58.5728-50.0224-67.2768 10.24-14.4384 14.592-31.8976 12.3392-49.5616-2.4064-18.6368-11.8784-35.1744-26.7264-46.6432-14.848-11.4688-33.3312-16.4864-51.9168-14.08-18.6368 2.4064-35.1744 11.8784-46.6432 26.7264l-29.3376 38.0416-29.3376-37.9904c-11.4688-14.848-28.0576-24.3712-46.6944-26.7776-18.5856-2.3552-37.0688 2.6112-51.8656 14.08-14.848 11.4688-24.3712 28.0576-26.7264 46.6432-2.2016 17.3568 1.9456 34.5088 11.776 48.7936-30.3104 7.7824-52.7872 35.328-52.7872 68.0448 0 25.7024 13.8752 48.2304 34.56 60.5184-20.6848 12.2368-34.56 34.7648-34.56 60.5184 0 38.7584 31.5392 70.2464 70.2464 70.2464H440.32v34.304c0 38.7584 31.5392 70.2464 70.2464 70.2464s70.2464-31.5392 70.2464-70.2464v-34.304h53.4528c38.7584 0 70.2464-31.5392 70.2464-70.2464 0.0512-25.7536-13.824-48.2816-34.5088-60.5184z" fill="#FE6A19" p-id="2776" data-spm-anchor-id="a313x.7781069.0.i5"></path><path d="M633.344 466.944h-72.2944v-19.0976h72.2944c27.8528 0 50.4832-22.6304 50.4832-50.4832s-22.6304-50.4832-50.4832-50.4832h-16.6912l19.8656-25.7024a50.23232 50.23232 0 0 0 10.1376-37.2736 50.37056 50.37056 0 0 0-19.2-33.536 50.23232 50.23232 0 0 0-37.2736-10.1376 50.37056 50.37056 0 0 0-33.536 19.2l-44.3392 57.4464-44.3392-57.4464a50.23232 50.23232 0 0 0-33.536-19.2512c-13.3632-1.6896-26.624 1.8944-37.2736 10.1376a50.17088 50.17088 0 0 0-19.2 33.536c-1.7408 13.3632 1.8944 26.624 10.1376 37.2736l19.8656 25.7024h-19.968c-27.8528 0-50.4832 22.6304-50.4832 50.4832s22.6304 50.4832 50.4832 50.4832H460.288v19.0976H387.84c-27.8528 0-50.4832 22.6304-50.4832 50.4832 0 27.8528 22.6304 50.4832 50.4832 50.4832h72.2944v53.248c0 27.8528 22.6304 50.4832 50.4832 50.4832 27.8528 0 50.4832-22.6304 50.4832-50.4832v-53.248h72.2944c27.8528 0 50.4832-22.6304 50.4832-50.4832-0.0512-27.8016-22.6816-50.432-50.5344-50.432z" fill="#FFEFE3" p-id="2777"></path><path d="M638.3104 489.8816h-97.6896V425.0112h97.6896c16.5888 0 30.0032-13.4144 30.0032-30.0032s-13.4144-30.0032-30.0032-30.0032h-63.1808l48.64-63.0272a29.96224 29.96224 0 0 0-5.4272-42.0864 29.96224 29.96224 0 0 0-42.0864 5.4272l-63.9488 82.7904-63.9488-82.7904c-10.1376-13.1072-28.9792-15.5648-42.0864-5.4272-13.1072 10.1376-15.5648 28.9792-5.4272 42.0864l48.64 63.0272H382.8736c-16.5888 0-30.0032 13.4144-30.0032 30.0032s13.4144 30.0032 30.0032 30.0032h97.6896v64.8704H382.8736c-16.5888 0-30.0032 13.4144-30.0032 30.0032s13.4144 30.0032 30.0032 30.0032h97.6896v77.8752c0 16.5888 13.4144 30.0032 30.0032 30.0032s30.0032-13.4144 30.0032-30.0032V549.888h97.6896c16.5888 0 30.0032-13.4144 30.0032-30.0032s-13.4144-30.0032-29.952-30.0032z" fill="#FFFFFF" p-id="2778"></path></svg>